<?xml version="1.0" encoding="UTF-8"?>
<svg width="100" height="40" id="katman_2" data-name="katman 2" xmlns="http://www.w3.org/2000/svg" viewBox="0 0 87.48 22.46">
  <defs>
    <style>
      .cls-1 {
        fill: #69c6dd;
      }
    </style>
  </defs>
  <g id="katman_1" data-name="katman 1">
    <g>
      <g>
        <path class="cls-1" d="M19.67,7.94c-.46-.78-.91-1.56-1.35-2.35-.09-.17-.2-.23-.39-.23-1.63,0-3.27,0-4.9,0s-3.27,0-4.9,0c-.2,0-.31,.05-.41,.23-.44,.8-.9,1.58-1.37,2.37-.07,.13-.07,.22,0,.34,1.67,2.88,3.33,5.76,4.99,8.64,.07,.13,.16,.17,.3,.17,.69,0,1.38,0,2.07,0,.28,0,.63,.09,.84-.04,.22-.13,.33-.46,.48-.71,1.55-2.67,3.09-5.35,4.64-8.02,.08-.15,.1-.25,0-.41Zm-5.46,4.01c-.4,.69-.8,1.38-1.2,2.07-1.08-1.88-2.19-3.8-3.31-5.74,.34,0,.68,0,1.03,0h2.45s3.15,0,3.15,0c-.71,1.22-1.41,2.44-2.12,3.67Z"/>
        <polygon class="cls-1" points="16.63 2.68 6.3 2.68 1.52 10.8 0 8.09 3.19 2.68 4.77 .02 15.14 .02 16.63 2.68"/>
        <polygon class="cls-1" points="17.72 17.15 22.96 8.12 18.17 .02 21.28 0 24.46 5.41 26.03 8.08 20.77 17.13 17.72 17.15"/>
        <path class="cls-1" d="M19.63,19.87c-3.23,0-6.45,.01-9.68,.02L4.76,10.99l-1.62,2.52,5.19,8.95c3.41,0,6.82,0,10.23,0,.29-.88,.65-1.75,1.07-2.59Z"/>
      </g>
      <g>
        <path class="cls-1" d="M33.09,15.86c-.97,0-1.91-.11-2.81-.33-.9-.22-1.65-.51-2.23-.86l1.26-2.84c.55,.32,1.17,.58,1.84,.77,.68,.19,1.34,.29,1.98,.29,.37,0,.67-.02,.88-.07,.21-.05,.37-.12,.47-.21,.1-.09,.15-.21,.15-.34,0-.21-.12-.37-.35-.5-.23-.12-.54-.22-.92-.31-.38-.08-.8-.17-1.25-.26-.45-.09-.91-.22-1.36-.37-.46-.15-.88-.36-1.26-.61-.38-.25-.69-.59-.92-1-.23-.41-.35-.93-.35-1.55,0-.72,.2-1.37,.6-1.96,.4-.59,1-1.06,1.8-1.41,.8-.35,1.79-.53,2.98-.53,.78,0,1.55,.08,2.32,.25,.76,.17,1.44,.42,2.05,.76l-1.17,2.83c-.57-.29-1.13-.5-1.66-.64-.53-.14-1.06-.21-1.56-.21-.37,0-.67,.03-.89,.1-.22,.07-.38,.15-.47,.26-.09,.11-.14,.23-.14,.36,0,.2,.12,.36,.35,.47s.54,.21,.92,.29c.38,.08,.8,.16,1.26,.25,.46,.09,.91,.21,1.36,.36,.45,.15,.87,.36,1.25,.61,.38,.25,.69,.58,.92,.99,.23,.41,.35,.92,.35,1.52,0,.71-.2,1.35-.6,1.94-.4,.59-1,1.06-1.79,1.42-.79,.36-1.79,.54-2.99,.54Z"/>
        <path class="cls-1" d="M41.99,15.6V7.05h-3.39v-3.03h10.68v3.03h-3.39V15.6h-3.9Z"/>
        <polygon class="cls-1" points="57.35 4.02 53.52 4.02 48.46 15.6 52.43 15.6 55.4 7.85 58.38 15.6 62.41 15.6 57.35 4.02"/>
        <path class="cls-1" d="M63.04,15.6V4.02h5.57c1.08,0,2.01,.18,2.8,.53,.79,.35,1.4,.86,1.83,1.51,.43,.66,.64,1.43,.64,2.32s-.21,1.66-.64,2.31c-.43,.64-1.04,1.14-1.83,1.48-.79,.34-1.72,.51-2.8,.51h-3.41l1.74-1.6v4.51h-3.9Zm3.9-4.08l-1.74-1.77h3.16c.54,0,.94-.12,1.2-.36,.26-.24,.39-.57,.39-.99s-.13-.75-.39-.99c-.26-.24-.66-.36-1.2-.36h-3.16l1.74-1.77v6.25Zm3.03,4.08l-2.84-4.22h4.13l2.88,4.22h-4.17Z"/>
        <polygon class="cls-1" points="82.97 15.6 87.48 15.6 82.62 9.12 87.25 4.02 83 4.02 79.2 8.21 79.2 4.02 75.36 4.02 75.36 15.6 79.2 15.6 79.2 12.73 80.07 11.76 82.97 15.6"/>
      </g>
    </g>
  </g>
</svg>